<svg width="25" height="24" viewBox="0 0 25 24" fill="none" xmlns="http://www.w3.org/2000/svg">
<path d="M12.2488 8.81072C13.2253 8.81072 13.884 9.23249 14.2595 9.58494L15.7271 8.15205C14.8257 7.31427 13.6528 6.80005 12.2488 6.80005C10.2151 6.80005 8.45863 7.96716 7.60352 9.66583L9.28485 10.9716C9.70663 9.71783 10.8737 8.81072 12.2488 8.81072Z" fill="#EA4335"/>
<path d="M17.241 12.1156C17.241 11.688 17.2064 11.376 17.1312 11.0525H12.249V12.9823H15.1148C15.057 13.4618 14.745 14.184 14.0517 14.6694L15.6926 15.9405C16.6748 15.0334 17.241 13.6987 17.241 12.1156Z" fill="#4285F4"/>
<path d="M9.29061 13.0284C9.18083 12.7049 9.11727 12.3582 9.11727 12C9.11727 11.6418 9.18083 11.2951 9.28483 10.9715L7.60349 9.66577C7.25105 10.3707 7.04883 11.1622 7.04883 12C7.04883 12.8378 7.25105 13.6293 7.60349 14.3342L9.29061 13.0284Z" fill="#FBBC05"/>
<path d="M12.2489 17.2001C13.6529 17.2001 14.8316 16.7379 15.6925 15.9406L14.0516 14.6695C13.6125 14.9757 13.0232 15.1895 12.2489 15.1895C10.8738 15.1895 9.70671 14.2823 9.29071 13.0286L7.60938 14.3343C8.46449 16.033 10.2152 17.2001 12.2489 17.2001Z" fill="#34A853"/>
</svg>
